<?xml version="1.0" encoding="utf-8"?>
<!-- Generator: Adobe Illustrator 16.0.0, SVG Export Plug-In . SVG Version: 6.00 Build 0)  -->
<!DOCTYPE svg PUBLIC "-//W3C//DTD SVG 1.1//EN" "http://www.w3.org/Graphics/SVG/1.1/DTD/svg11.dtd">
<svg version="1.1" xmlns="http://www.w3.org/2000/svg" xmlns:xlink="http://www.w3.org/1999/xlink" x="0px" y="0px" width="50px"
	 height="50px" viewBox="0 0 50 50" enable-background="new 0 0 50 50" xml:space="preserve">
<g id="Layer_2" display="none">
	
		<rect x="5" y="5" display="inline" fill="none" stroke="#000000" stroke-width="0.25" stroke-linecap="round" stroke-linejoin="round" stroke-miterlimit="10" width="40" height="40"/>
</g>
<g id="Layer_1">
	<g>
		<g>
			<path d="M22.211,17.32c0.233-2.532,1.131-4.87,2.518-6.847C23.6,5.348,19.028,1.5,13.571,1.5C7.27,1.5,2.143,6.627,2.143,12.929
				c0,5.484,3.884,10.075,9.046,11.174C13.786,20.564,17.701,18.063,22.211,17.32z M8.999,15.649c0-0.416,0.319-0.737,0.736-0.737
				h2.345v-0.548l-0.321-0.548H9.735c-0.417,0-0.736-0.321-0.736-0.737s0.319-0.737,0.736-0.737h1.153L8.394,8.242
				C8.262,8.015,8.13,7.732,8.13,7.467c0-1.039,0.964-1.379,1.624-1.379c0.794,0,1.153,0.624,1.286,0.888l2.532,4.819l2.53-4.819
				c0.135-0.264,0.492-0.888,1.284-0.888c0.662,0,1.625,0.341,1.625,1.379c0,0.265-0.132,0.548-0.263,0.774l-2.495,4.101h1.152
				c0.415,0,0.736,0.321,0.736,0.737s-0.321,0.737-0.736,0.737h-2.021l-0.321,0.548v0.548h2.343c0.415,0,0.736,0.321,0.736,0.737
				c0,0.416-0.321,0.737-0.736,0.737h-2.343v1.87c0,0.907-0.549,1.512-1.491,1.512c-0.945,0-1.492-0.605-1.492-1.512v-1.87H9.735
				C9.318,16.386,8.999,16.065,8.999,15.649z"/>
		</g>
		<g>
			<path d="M36.429,7.214c-5.769,0-10.541,4.302-11.309,9.864c2.181,0.016,4.26,0.447,6.176,1.207
				c0.126-0.292,0.388-0.475,0.797-0.475h0.396c-0.396-0.567-0.567-1.285-0.567-2.022c0-2.342,2.078-3.986,4.743-3.986
				c3.309,0,4.913,1.776,4.913,3.25c0,0.851-0.586,1.323-1.418,1.323c-1.661,0-0.642-2.305-3.193-2.305
				c-1.114,0-2.172,0.662-2.172,1.889c0,0.643,0.32,1.285,0.623,1.852h2.06c0.774,0,1.172,0.284,1.172,0.907
				c0,0.623-0.397,0.906-1.172,0.906h-1.494c0.058,0.152,0.096,0.284,0.096,0.454c0,0.305-0.075,0.607-0.194,0.902
				c0.618,0.51,1.188,1.076,1.73,1.667c0.524,0.106,0.991,0.228,1.545,0.228c0.319,0,1.097-0.208,1.397-0.208
				c0.698,0,1.096,0.529,1.096,1.208c0,1.066-0.954,1.529-1.936,1.593c0.652,1.094,1.195,2.258,1.595,3.49
				c3.862-1.835,6.545-5.763,6.545-10.317C47.857,12.341,42.73,7.214,36.429,7.214z"/>
		</g>
		<g>
			<path d="M25.758,35.576v4.676c1.415-0.094,2.905-0.755,2.905-2.315C28.663,36.331,27.03,35.86,25.758,35.576z"/>
		</g>
		<g>
			<path d="M21.694,29.979c0,1.182,0.875,1.865,2.645,2.22v-4.228C22.731,28.019,21.694,28.963,21.694,29.979z"/>
		</g>
		<g>
			<path d="M25,19.929c-7.877,0-14.287,6.409-14.287,14.286S17.123,48.5,25,48.5s14.287-6.407,14.287-14.285
				S32.877,19.929,25,19.929z M25.758,42.662v1.465c0,0.402-0.31,0.803-0.711,0.803s-0.708-0.401-0.708-0.803v-1.465
				c-3.99-0.094-5.976-2.481-5.976-4.347c0-0.943,0.566-1.487,1.464-1.487c2.645,0,0.589,3.26,4.512,3.425v-4.937
				c-3.498-0.637-5.62-2.171-5.62-4.794c0-3.211,2.668-4.866,5.62-4.959v-1.259c0-0.403,0.307-0.804,0.708-0.804
				s0.711,0.401,0.711,0.804v1.259c1.839,0.048,5.618,1.203,5.618,3.519c0,0.921-0.686,1.462-1.489,1.462
				c-1.535,0-1.514-2.525-4.129-2.573v4.487c3.118,0.662,5.879,1.582,5.879,5.222C31.637,40.844,29.274,42.451,25.758,42.662z"/>
		</g>
	</g>
</g>
</svg>
